<?xml version="1.0" encoding="UTF-8"?>
<svg xmlns="http://www.w3.org/2000/svg" xmlns:xlink="http://www.w3.org/1999/xlink" width="56pt" height="30pt" viewBox="0 0 56 30" version="1.1">
<g id="surface1">
<path style="fill-rule:nonzero;fill:rgb(100%,100%,100%);fill-opacity:1;stroke-width:0.67;stroke-linecap:butt;stroke-linejoin:miter;stroke:rgb(87.843137%,87.843137%,87.843137%);stroke-opacity:1;stroke-miterlimit:4;" d="M 32.000698 0.700781 L 1.999302 0.700781 C 1.700474 0.700781 1.498884 0.799219 1.299665 1.000781 C 1.100446 1.2 1.000837 1.399219 1.000837 1.699219 L 1.000837 16.399219 C 1.000837 16.699219 1.100446 16.900781 1.299665 17.1 C 1.498884 17.299219 1.700474 17.4 1.999302 17.4 L 32.000698 17.4 C 32.299526 17.4 32.501116 17.299219 32.700335 17.1 C 32.899554 16.900781 32.999163 16.699219 32.999163 16.399219 L 32.999163 1.699219 C 32.999163 1.399219 32.899554 1.2 32.700335 1.000781 C 32.501116 0.799219 32.199916 0.700781 32.000698 0.700781 Z M 32.000698 0.700781 " transform="matrix(1.647059,0,0,1.666667,0,0)"/>
<path style=" stroke:none;fill-rule:nonzero;fill:rgb(80%,0%,0%);fill-opacity:1;" d="M 22.070312 23.167969 C 23.71875 23.167969 25.199219 22.667969 26.683594 21.667969 C 28 20.667969 28.988281 19.5 29.648438 17.832031 C 30.304688 16.5 30.46875 14.832031 30.140625 13.167969 C 29.8125 11.5 28.988281 10 27.835938 9 C 26.683594 7.832031 25.199219 7 23.554688 6.667969 C 21.90625 6.332031 20.257812 6.5 18.777344 7.167969 C 17.292969 7.832031 15.976562 8.832031 15.152344 10.167969 C 14.328125 11.832031 13.835938 13.332031 13.835938 14.832031 C 13.835938 16 14 17 14.492188 18 C 14.988281 19 15.480469 20 16.304688 20.667969 C 17.128906 21.5 17.953125 22 18.941406 22.5 C 19.929688 23 21.082031 23.167969 22.070312 23.167969 Z M 22.070312 23.167969 "/>
<path style=" stroke:none;fill-rule:nonzero;fill:rgb(100%,60%,0%);fill-opacity:1;" d="M 33.765625 23.167969 C 35.410156 23.167969 37.058594 22.667969 38.375 21.832031 C 39.695312 21 40.847656 19.667969 41.339844 18.167969 C 42 16.5 42.164062 14.832031 41.835938 13.167969 C 41.507812 11.5 40.683594 10.167969 39.53125 9 C 38.375 7.832031 36.894531 7 35.246094 6.667969 C 33.601562 6.332031 31.953125 6.5 30.46875 7.167969 C 28.988281 7.832031 27.671875 8.832031 26.847656 10.167969 C 26.023438 11.832031 25.53125 13.332031 25.53125 15 C 25.53125 17.167969 26.351562 19.332031 28 20.832031 C 29.480469 22.332031 31.625 23.167969 33.765625 23.167969 Z M 33.765625 23.167969 "/>
<path style=" stroke:none;fill-rule:evenodd;fill:rgb(94.509804%,42.745098%,15.294118%);fill-opacity:1;" d="M 28 21 C 29.480469 19.332031 30.304688 17.332031 30.46875 15 C 30.304688 12.832031 29.480469 10.667969 28 9 C 27.175781 9.832031 26.519531 10.667969 26.1875 11.667969 C 25.695312 12.667969 25.53125 13.832031 25.53125 15 C 25.53125 16.167969 25.695312 17.167969 26.1875 18.167969 C 26.519531 19.332031 27.175781 20.167969 28 21 Z M 28 21 "/>
</g>
</svg>
