<?xml version="1.0" encoding="UTF-8"?>
<svg xmlns="http://www.w3.org/2000/svg" xmlns:xlink="http://www.w3.org/1999/xlink" width="63pt" height="30pt" viewBox="0 0 63 30" version="1.1">
<g id="surface1">
<path style="fill-rule:nonzero;fill:rgb(100%,100%,100%);fill-opacity:1;stroke-width:0.67;stroke-linecap:butt;stroke-linejoin:miter;stroke:rgb(87.843137%,87.843137%,87.843137%);stroke-opacity:1;stroke-miterlimit:4;" d="M 35.999628 0.700781 L 2.000372 0.700781 C 1.701141 0.700781 1.500868 0.799219 1.300595 1.000781 C 1.100322 1.2 0.999008 1.399219 0.999008 1.699219 L 0.999008 16.399219 C 0.999008 16.699219 1.100322 16.900781 1.300595 17.1 C 1.500868 17.299219 1.701141 17.4 2.000372 17.4 L 35.999628 17.4 C 36.298859 17.4 36.499132 17.299219 36.699405 17.1 C 36.899678 16.900781 37.000992 16.699219 37.000992 16.399219 L 37.000992 1.699219 C 37.000992 1.399219 36.899678 1.2 36.699405 1.000781 C 36.499132 0.9 36.199901 0.700781 35.999628 0.700781 Z M 35.999628 0.700781 " transform="matrix(1.657895,0,0,1.666667,0,0)"/>
<path style=" stroke:none;fill-rule:nonzero;fill:rgb(30.588235%,30.588235%,30.588235%);fill-opacity:1;" d="M 27.355469 13.5 L 26.527344 13.5 L 24.207031 9.667969 L 24.207031 13.5 L 23.210938 13.5 L 23.210938 8.167969 L 24.207031 8.167969 L 26.527344 12 L 26.527344 8.167969 L 27.355469 8.167969 Z M 31.5 11 L 29.34375 11 L 29.34375 12.667969 L 31.832031 12.667969 L 31.832031 13.5 L 28.351562 13.5 L 28.351562 8.167969 L 31.832031 8.167969 L 31.832031 9 L 29.34375 9 L 29.34375 10.5 L 31.5 10.5 Z M 36.472656 8.667969 L 34.816406 8.667969 L 34.816406 13.332031 L 33.820312 13.332031 L 33.820312 8.667969 L 32.164062 8.667969 L 32.164062 8.167969 L 36.308594 8.167969 Z M 23.210938 21.832031 L 23.210938 16.5 L 25.035156 16.5 C 25.53125 16.5 26.027344 16.667969 26.359375 16.832031 C 26.527344 17 26.691406 17.167969 26.691406 17.332031 C 26.691406 17.5 26.859375 17.667969 26.859375 18 C 26.859375 18.167969 26.859375 18.5 26.691406 18.667969 C 26.527344 18.832031 26.359375 19 26.195312 19.167969 C 26.527344 19.167969 26.691406 19.332031 26.859375 19.667969 C 27.023438 19.832031 27.191406 20.167969 27.023438 20.5 C 27.023438 20.667969 27.023438 21 26.859375 21.167969 C 26.691406 21.332031 26.691406 21.5 26.527344 21.667969 C 26.195312 22 25.699219 22.167969 25.199219 22 Z M 24.039062 19.332031 L 24.039062 21 L 25.035156 21 C 25.199219 21 25.53125 21 25.699219 20.832031 C 25.699219 20.832031 25.863281 20.667969 25.863281 20.5 C 25.863281 20.332031 25.863281 20.332031 25.863281 20.167969 C 25.863281 20 25.863281 20 25.863281 19.832031 C 25.863281 19.667969 25.699219 19.667969 25.699219 19.5 C 25.699219 19.332031 25.53125 19.332031 25.367188 19.332031 C 25.199219 19.332031 25.199219 19.332031 25.035156 19.332031 Z M 24.039062 18.667969 L 24.867188 18.667969 C 25.035156 18.667969 25.367188 18.667969 25.53125 18.5 L 25.699219 18.332031 C 25.699219 18.167969 25.699219 18.167969 25.699219 18 C 25.699219 17.832031 25.699219 17.832031 25.699219 17.667969 C 25.699219 17.5 25.53125 17.5 25.53125 17.332031 C 25.367188 17.167969 25.035156 17.167969 24.867188 17.167969 L 24.039062 17.167969 Z M 30.835938 20.332031 L 28.847656 20.332031 L 28.351562 21.5 L 27.355469 21.5 L 29.34375 16.167969 L 30.171875 16.167969 L 32.164062 21.5 L 31.167969 21.5 Z M 29.179688 19.832031 L 30.671875 19.832031 L 29.84375 17.667969 Z M 36.972656 21.832031 L 35.976562 21.832031 L 33.65625 18 L 33.65625 21.832031 L 32.660156 21.832031 L 32.660156 16.5 L 33.65625 16.5 L 35.976562 20.332031 L 35.976562 16.5 L 36.972656 16.5 Z M 39.625 19.5 L 38.960938 20.167969 L 38.960938 21.832031 L 37.964844 21.832031 L 37.964844 16.5 L 38.960938 16.5 L 38.960938 19 L 39.457031 18.332031 L 40.949219 16.5 L 42.109375 16.5 L 40.121094 18.832031 L 42.277344 21.832031 L 41.117188 21.832031 Z M 43.769531 21.832031 L 42.941406 21.832031 L 42.941406 16.5 L 43.769531 16.5 Z M 49.074219 21.832031 L 48.246094 21.832031 L 45.757812 18 L 45.757812 21.832031 L 44.761719 21.832031 L 44.761719 16.5 L 45.757812 16.5 L 48.078125 20.332031 L 48.078125 16.5 L 49.074219 16.5 Z M 54.378906 21.167969 C 54.214844 21.5 53.882812 21.667969 53.550781 21.832031 C 53.21875 22 52.722656 22 52.390625 22 C 52.058594 22 51.558594 21.832031 51.230469 21.667969 C 50.898438 21.5 50.566406 21.167969 50.398438 20.832031 C 50.234375 20.5 50.070312 20 50.070312 19.5 L 50.070312 19.167969 C 50.070312 18.5 50.234375 17.832031 50.730469 17.332031 C 50.898438 17.167969 51.230469 16.832031 51.394531 16.832031 C 51.726562 16.667969 52.058594 16.667969 52.390625 16.667969 C 52.886719 16.667969 53.382812 16.832031 53.714844 17.167969 C 54.046875 17.5 54.378906 18 54.378906 18.5 L 53.550781 18.5 C 53.550781 18.332031 53.550781 18.167969 53.382812 18.167969 C 53.382812 18 53.21875 18 53.050781 17.832031 C 52.886719 17.667969 52.886719 17.667969 52.722656 17.667969 C 52.554688 17.667969 52.390625 17.667969 52.390625 17.667969 C 52.222656 17.667969 52.058594 17.667969 51.890625 17.832031 C 51.726562 18 51.558594 18 51.558594 18.167969 C 51.394531 18.5 51.230469 19 51.230469 19.5 L 51.230469 19.832031 C 51.230469 20.332031 51.394531 20.832031 51.558594 21.167969 C 51.726562 21.332031 51.890625 21.5 52.058594 21.5 C 52.222656 21.667969 52.390625 21.667969 52.554688 21.667969 C 52.722656 21.667969 52.886719 21.667969 53.050781 21.667969 C 53.21875 21.667969 53.382812 21.5 53.550781 21.332031 L 53.550781 20.332031 L 52.390625 20.332031 L 52.390625 19.667969 L 54.378906 19.667969 Z M 54.378906 21.167969 "/>
<path style=" stroke:none;fill-rule:nonzero;fill:rgb(0%,0%,0%);fill-opacity:1;" d="M 12.433594 6.832031 C 12.929688 6.832031 13.261719 7 13.59375 7.332031 C 13.925781 7.667969 14.09375 8 14.09375 8.5 L 14.09375 10.167969 C 15.085938 10.332031 16.082031 10.667969 16.746094 11.5 C 17.40625 12.332031 17.738281 13.332031 17.738281 14.332031 L 17.738281 18.667969 C 17.738281 19.167969 17.574219 19.667969 17.40625 20.167969 C 17.242188 20.667969 16.910156 21.167969 16.578125 21.5 C 16.246094 21.832031 15.75 22.167969 15.253906 22.332031 C 14.753906 22.5 14.257812 22.667969 13.761719 22.667969 C 13.261719 22.667969 12.765625 22.5 12.269531 22.332031 C 11.769531 22.167969 11.273438 21.832031 10.941406 21.5 C 10.609375 21.167969 10.277344 20.667969 10.113281 20.167969 C 9.949219 19.667969 9.78125 19.167969 9.78125 18.667969 L 9.78125 14.332031 C 9.78125 13.332031 10.113281 12.332031 10.777344 11.5 C 11.441406 10.667969 12.433594 10.332031 13.429688 10.167969 L 13.429688 8.5 C 13.429688 8.332031 13.429688 8.332031 13.429688 8.167969 C 13.429688 8 13.261719 8 13.261719 7.832031 C 13.261719 7.832031 13.097656 7.667969 12.929688 7.667969 C 12.765625 7.667969 12.765625 7.667969 12.601562 7.667969 C 12.433594 7.667969 12.433594 7.667969 12.269531 7.667969 C 12.101562 7.667969 12.101562 7.832031 11.9375 7.832031 C 11.9375 8 11.769531 8 11.769531 8.167969 C 11.769531 8.332031 11.769531 8.332031 11.769531 8.5 L 11.769531 8.832031 C 11.769531 9.332031 11.605469 9.667969 11.273438 10 C 10.941406 10.332031 10.609375 10.332031 10.113281 10.332031 C 9.617188 10.332031 9.285156 10.332031 8.953125 9.832031 C 8.621094 9.667969 8.457031 9.167969 8.457031 8.667969 C 8.457031 8.667969 8.457031 8.5 8.621094 8.5 L 8.953125 8.5 C 8.953125 8.5 9.117188 8.5 9.117188 8.667969 L 9.117188 8.832031 C 9.117188 9 9.117188 9.167969 9.117188 9.167969 C 9.117188 9.332031 9.285156 9.332031 9.285156 9.5 C 9.449219 9.667969 9.449219 9.667969 9.617188 9.667969 C 9.78125 9.667969 9.78125 9.667969 9.949219 9.667969 C 10.113281 9.667969 10.277344 9.667969 10.277344 9.667969 C 10.445312 9.667969 10.445312 9.5 10.609375 9.5 C 10.609375 9.332031 10.777344 9.332031 10.777344 9.167969 C 10.777344 9 10.777344 9 10.777344 8.832031 L 10.777344 8.5 C 10.777344 8 10.941406 7.667969 11.273438 7.332031 C 11.605469 7 11.9375 6.832031 12.433594 6.832031 Z M 13.59375 11.832031 L 13.429688 11.832031 C 13.429688 11.832031 13.261719 11.832031 13.261719 12 C 13.261719 12 13.261719 12.167969 13.097656 12.167969 L 13.097656 14.5 C 13.097656 14.5 13.097656 14.667969 13.261719 14.667969 L 13.429688 14.832031 L 13.761719 14.832031 L 14.09375 14.5 L 14.09375 12.332031 C 14.09375 12.332031 14.09375 12.167969 13.925781 12.167969 L 13.761719 12 C 13.761719 12 13.761719 12 13.59375 11.832031 Z M 13.59375 11.832031 "/>
</g>
</svg>
