<?xml version="1.0" encoding="UTF-8"?>
<svg xmlns="http://www.w3.org/2000/svg" xmlns:xlink="http://www.w3.org/1999/xlink" width="56pt" height="30pt" viewBox="0 0 56 30" version="1.1">
<defs>
<filter id="alpha" filterUnits="objectBoundingBox" x="0%" y="0%" width="100%" height="100%">
  <feColorMatrix type="matrix" in="SourceGraphic" values="0 0 0 0 1 0 0 0 0 1 0 0 0 0 1 0 0 0 1 0"/>
</filter>
<mask id="mask0">
  <g filter="url(#alpha)">
<rect x="0" y="0" width="56" height="30" style="fill:rgb(0%,0%,0%);fill-opacity:0.941176;stroke:none;"/>
  </g>
</mask>
<clipPath id="clip1">
  <rect x="0" y="0" width="56" height="30"/>
</clipPath>
<g id="surface5" clip-path="url(#clip1)">
<path style=" stroke:none;fill-rule:evenodd;fill:rgb(16.470588%,17.254902%,51.372549%);fill-opacity:1;" d="M 9.386719 17.832031 C 9.386719 17.832031 9.554688 16.832031 10.210938 14.5 C 10.707031 12.667969 11.199219 11 11.199219 10.832031 L 11.363281 10.332031 L 13.339844 10.332031 C 15.648438 10.332031 15.976562 10.332031 16.304688 10.667969 C 16.964844 11 17.128906 11.5 16.964844 12.332031 C 16.800781 13 16.304688 13.667969 15.648438 14.167969 C 15.480469 14.332031 15.316406 14.332031 15.316406 14.5 C 15.316406 14.5 15.316406 14.667969 15.480469 14.832031 C 15.648438 15 15.648438 15 15.8125 15.167969 C 15.976562 15.667969 15.976562 16 15.8125 16.5 C 15.8125 16.832031 15.648438 17.167969 15.648438 17.5 L 15.648438 18 L 14.660156 18 C 14.328125 18 14 18 13.671875 18 C 13.507812 17.832031 13.507812 17.667969 13.671875 17 C 13.835938 16.332031 13.835938 16 13.671875 15.832031 C 13.507812 15.667969 13.339844 15.5 12.683594 15.5 C 12.023438 15.5 12.023438 15.5 12.023438 15.5 C 12.023438 15.5 11.859375 15.832031 11.53125 17 L 11.199219 18 L 10.375 18 C 10.046875 17.667969 9.71875 17.667969 9.386719 17.832031 Z M 14.328125 13.667969 C 14.824219 13.5 14.988281 13.332031 14.988281 12.667969 C 14.988281 12.5 14.988281 12.5 14.988281 12.332031 C 14.824219 12.167969 14.492188 12.167969 13.671875 12.167969 L 13.011719 12.167969 L 12.847656 12.5 C 12.683594 12.832031 12.683594 13.167969 12.519531 13.667969 C 12.519531 13.832031 12.519531 13.832031 12.683594 13.832031 C 13.339844 13.667969 13.835938 13.667969 14.328125 13.667969 Z M 17.457031 18 C 17.128906 17.832031 16.964844 17.667969 16.800781 17.5 C 16.636719 17 16.800781 16.167969 17.457031 13.667969 C 17.625 13.167969 17.789062 12.667969 17.789062 12.667969 C 17.789062 12.667969 17.953125 12.667969 18.613281 12.667969 C 18.941406 12.667969 19.105469 12.667969 19.433594 12.667969 L 19.601562 12.667969 L 19.433594 13.167969 C 19.105469 14.167969 18.777344 15.5 18.777344 16 C 18.777344 16.332031 18.777344 16.5 18.777344 16.5 C 18.777344 16.667969 19.433594 16.832031 19.765625 16.667969 C 20.09375 16.5 20.257812 16.167969 21.082031 13.5 C 21.082031 13.167969 21.246094 13 21.410156 12.832031 L 21.578125 12.667969 L 22.398438 12.667969 C 23.058594 12.667969 23.222656 12.667969 23.222656 12.667969 C 23.222656 12.667969 22.234375 16.332031 21.90625 17.832031 L 21.90625 18 L 20.257812 18 C 20.257812 17.832031 20.257812 17.832031 20.421875 17.832031 C 20.589844 17.332031 20.421875 17.332031 19.765625 17.832031 C 19.433594 18.167969 18.941406 18.332031 18.445312 18.332031 C 17.953125 18.167969 17.789062 18.167969 17.457031 18 Z M 23.058594 17.832031 C 23.222656 16.5 23.554688 15.332031 24.046875 14.167969 L 25.035156 10.5 L 26.683594 10.5 C 28.824219 10.5 29.316406 10.5 29.648438 10.832031 C 29.976562 11 30.140625 11.167969 30.304688 11.5 C 30.46875 11.832031 30.46875 12.167969 30.46875 12.5 C 30.46875 12.832031 30.46875 13.167969 30.304688 13.332031 C 30.140625 13.832031 29.8125 14.332031 29.480469 14.667969 C 29.152344 15 28.660156 15.332031 28.164062 15.5 C 27.835938 15.5 27.339844 15.667969 27.011719 15.667969 C 25.53125 15.832031 25.53125 15.667969 25.53125 16 C 25.363281 16.332031 25.363281 16.667969 25.199219 17.167969 L 24.871094 18.167969 L 23.882812 18.167969 C 23.554688 17.832031 23.222656 17.832031 23.058594 17.832031 Z M 27.507812 13.667969 C 27.671875 13.667969 27.835938 13.667969 28 13.5 C 28.164062 13.332031 28.328125 13.332031 28.328125 13.167969 C 28.492188 13 28.492188 12.832031 28.492188 12.667969 C 28.492188 12.5 28.492188 12.332031 28.492188 12.167969 C 28.328125 12 28.164062 11.832031 27.339844 11.832031 C 27.011719 11.832031 26.847656 11.832031 26.519531 11.832031 C 26.351562 12.332031 26.1875 12.832031 26.1875 13.332031 L 26.1875 13.5 C 26.519531 13.667969 27.011719 13.667969 27.507812 13.667969 Z M 30.304688 18 C 29.8125 17.832031 29.648438 17.332031 29.8125 16.5 C 30.140625 15.332031 30.636719 15 32.613281 14.667969 C 33.765625 14.5 34.09375 14.332031 34.257812 13.832031 C 34.421875 13.332031 34.09375 13.5 33.433594 13.5 C 33.269531 13.5 33.105469 13.5 32.941406 13.5 C 32.777344 13.5 32.613281 13.667969 32.613281 13.832031 L 32.445312 14 L 31.789062 14 C 31.128906 14 30.800781 14 30.800781 13.832031 C 30.964844 13.5 31.128906 13.332031 31.292969 13 C 31.625 12.667969 31.953125 12.5 32.445312 12.5 C 33.433594 12.167969 34.421875 12.167969 35.410156 12.5 C 35.742188 12.667969 35.90625 12.832031 36.070312 13.167969 C 36.234375 13.167969 36.234375 13.5 35.578125 15.5 C 35.410156 16.5 35.082031 17.5 35.082031 17.5 L 35.082031 17.667969 L 33.601562 17.667969 L 33.433594 17.5 C 33.269531 17.167969 33.269531 17.167969 32.613281 17.5 C 32.117188 17.667969 31.625 17.832031 31.128906 17.832031 C 30.964844 18 30.636719 18 30.304688 18 Z M 32.941406 16.832031 C 33.105469 16.667969 33.269531 16.5 33.433594 16.332031 C 33.601562 16.167969 33.601562 15.832031 33.601562 15.667969 L 33.601562 15.332031 L 33.269531 15.332031 C 32.777344 15.332031 32.28125 15.5 31.953125 15.832031 C 31.789062 15.832031 31.789062 16 31.625 16 C 31.625 16.167969 31.457031 16.167969 31.457031 16.332031 C 31.457031 16.5 31.457031 16.667969 31.625 16.667969 C 32.28125 17 32.613281 17 32.941406 16.832031 Z M 35.742188 20.167969 C 35.578125 20.167969 35.578125 20 35.742188 19.5 C 35.90625 19 35.90625 18.832031 36.398438 18.667969 C 36.894531 18.667969 37.058594 18.5 37.222656 18.332031 C 37.386719 17.167969 37.386719 15.832031 37.222656 14.667969 C 37.222656 14 37.222656 13.332031 37.222656 12.5 C 37.222656 12.5 37.554688 12.5 38.210938 12.5 L 39.035156 12.5 L 39.035156 14.167969 C 39.035156 14.667969 39.035156 15.332031 39.035156 15.832031 C 39.199219 16 39.53125 15.332031 40.847656 12.832031 L 41.011719 12.5 L 41.835938 12.5 C 42.164062 12.5 42.328125 12.5 42.660156 12.5 C 42.660156 12.5 41.507812 14.667969 40.351562 16.667969 C 38.707031 19.5 38.375 20 37.554688 20.167969 C 36.894531 20.167969 36.398438 20.167969 35.742188 20.167969 Z M 35.742188 20.167969 "/>
</g>
</defs>
<g id="surface1">
<path style="fill-rule:nonzero;fill:rgb(100%,100%,100%);fill-opacity:1;stroke-width:0.67;stroke-linecap:butt;stroke-linejoin:miter;stroke:rgb(87.843137%,87.843137%,87.843137%);stroke-opacity:1;stroke-miterlimit:4;" d="M 32.000698 0.700781 L 1.999302 0.700781 C 1.700474 0.700781 1.498884 0.799219 1.299665 1.000781 C 1.100446 1.2 1.000837 1.399219 1.000837 1.699219 L 1.000837 16.399219 C 1.000837 16.699219 1.100446 16.900781 1.299665 17.1 C 1.498884 17.299219 1.700474 17.4 1.999302 17.4 L 32.000698 17.4 C 32.299526 17.4 32.501116 17.299219 32.700335 17.1 C 32.899554 16.900781 32.999163 16.699219 32.999163 16.399219 L 32.999163 1.699219 C 32.999163 1.399219 32.899554 1.2 32.700335 1.000781 C 32.501116 0.9 32.299526 0.700781 32.000698 0.700781 Z M 32.000698 0.700781 " transform="matrix(1.647059,0,0,1.666667,0,0)"/>
<use xlink:href="#surface5" mask="url(#mask0)"/>
<path style=" stroke:none;fill-rule:evenodd;fill:rgb(3.529412%,47.843137%,26.666667%);fill-opacity:1;" d="M 42.988281 19.5 L 45.292969 11 L 47.433594 15.332031 Z M 42.988281 19.5 "/>
<path style=" stroke:none;fill-rule:evenodd;fill:rgb(95.686275%,43.529412%,12.54902%);fill-opacity:1;" d="M 41.671875 19.667969 L 43.976562 11.167969 L 46.117188 15.332031 Z M 41.671875 19.667969 "/>
</g>
</svg>
