<svg width="16" height="10" viewBox="0 0 16 10" fill="none" xmlns="http://www.w3.org/2000/svg">
<path d="M5.5 9.375C5.8315 9.375 6.1495 9.2433 6.3839 9.0089C6.6183 8.7745 6.75 8.4565 6.75 8.125C6.75 7.7935 6.6183 7.4755 6.3839 7.2411C6.1495 7.0067 5.8315 6.875 5.5 6.875C5.1685 6.875 4.8505 7.0067 4.6161 7.2411C4.3817 7.4755 4.25 7.7935 4.25 8.125C4.25 8.4565 4.3817 8.7745 4.6161 9.0089C4.8505 9.2433 5.1685 9.375 5.5 9.375ZM11.75 9.375C12.0815 9.375 12.3995 9.2433 12.6339 9.0089C12.8683 8.7745 13 8.4565 13 8.125C13 7.7935 12.8683 7.4755 12.6339 7.2411C12.3995 7.0067 12.0815 6.875 11.75 6.875C11.4185 6.875 11.1005 7.0067 10.8661 7.2411C10.6317 7.4755 10.5 7.7935 10.5 8.125C10.5 8.4565 10.6317 8.7745 10.8661 9.0089C11.1005 9.2433 11.4185 9.375 11.75 9.375Z" stroke="#2C2B24" stroke-miterlimit="1.5" stroke-linecap="round" stroke-linejoin="round"/>
<path d="M6.7813 8.125H9.875V1.625C9.875 1.52554 9.8355 1.43016 9.7652 1.35983C9.6948 1.28951 9.5995 1.25 9.5 1.25H1.125M4.0313 8.125H2.75C2.7008 8.125 2.652 8.1153 2.6065 8.0965C2.561 8.0776 2.5197 8.05 2.4848 8.0152C2.45 7.9803 2.4224 7.939 2.4035 7.8935C2.3847 7.848 2.375 7.7992 2.375 7.75V4.6875" stroke="#2C2B24" stroke-linecap="round"/>
<path d="M1.75 3.125H4.25" stroke="#2C2B24" stroke-linecap="round" stroke-linejoin="round"/>
<path d="M9.875 3.125H13.3813C13.4537 3.12502 13.5247 3.14604 13.5854 3.18553C13.6462 3.22502 13.6943 3.28128 13.7238 3.3475L14.8425 5.865C14.8638 5.9128 14.8749 5.9645 14.875 6.0169V7.75C14.875 7.7992 14.8653 7.848 14.8465 7.8935C14.8276 7.939 14.8 7.9803 14.7652 8.0152C14.7303 8.05 14.689 8.0776 14.6435 8.0965C14.598 8.1153 14.5492 8.125 14.5 8.125H13.3125M9.875 8.125H10.5" stroke="#2C2B24" stroke-linecap="round"/>
</svg>
