<?xml version="1.0" encoding="utf-8"?>
<!-- Generator: Adobe Illustrator 25.3.1, SVG Export Plug-In . SVG Version: 6.00 Build 0)  -->
<svg version="1.1" id="Layer_1" xmlns="http://www.w3.org/2000/svg" xmlns:xlink="http://www.w3.org/1999/xlink" x="0px" y="0px"
	 viewBox="0 0 34 18" style="enable-background:new 0 0 34 18;" xml:space="preserve">
<style type="text/css">
	.st0{fill:#FFFFFF;stroke:#E0E0E0;stroke-width:0.67;}
	.st1{fill-rule:evenodd;clip-rule:evenodd;fill:#097939;}
	.st2{fill-rule:evenodd;clip-rule:evenodd;fill:#ED752E;}
	.st3{fill-rule:evenodd;clip-rule:evenodd;fill:#747474;}
</style>
<g>
	<path class="st0" d="M32,0.7H2C1.7,0.7,1.5,0.8,1.3,1S1,1.4,1,1.7v14.7c0,0.3,0.1,0.5,0.3,0.7s0.4,0.3,0.7,0.3h30
		c0.3,0,0.5-0.1,0.7-0.3c0.2-0.2,0.3-0.4,0.3-0.7V1.7c0-0.3-0.1-0.5-0.3-0.7C32.5,0.9,32.3,0.7,32,0.7L32,0.7z"/>
	<g>
		<path class="st1" d="M24,11.5l2.8-2.6l-1.3-2.6L24,11.5z"/>
		<path class="st2" d="M23,11.5l2.8-2.6l-1.3-2.6L23,11.5z"/>
		<path class="st3" d="M9.6,6.3l-1.2,4.2l4.2,0l1.2-4.2h1.1l-1.4,4.9c-0.1,0.2-0.3,0.3-0.4,0.3H7.7c-0.3,0-0.5-0.3-0.4-0.6l1.3-4.7
			L9.6,6.3z M22.6,6.3h1.1l-1.5,5.3h-1.1L22.6,6.3z M15,8.5l5.3,0l0.4-1.1h-5.4l0.3-1l5.8-0.1c0.4,0,0.6,0.3,0.5,0.6l-0.5,2
			c-0.1,0.3-0.5,0.6-0.8,0.6h-4.8l-0.6,2.2h-1L15,8.5z"/>
	</g>
</g>
</svg>
