<?xml version="1.0" encoding="UTF-8"?>
<svg xmlns="http://www.w3.org/2000/svg" xmlns:xlink="http://www.w3.org/1999/xlink" width="56pt" height="30pt" viewBox="0 0 56 30" version="1.1">
<g id="surface1">
<path style="fill-rule:nonzero;fill:rgb(100%,100%,100%);fill-opacity:1;stroke-width:0.67;stroke-linecap:butt;stroke-linejoin:miter;stroke:rgb(87.843137%,87.843137%,87.843137%);stroke-opacity:1;stroke-miterlimit:4;" d="M 32.000698 0.700781 L 1.999302 0.700781 C 1.800084 0.700781 1.498884 0.799219 1.299665 1.000781 C 1.100446 1.2 1.000837 1.399219 1.000837 1.699219 L 1.000837 16.399219 C 1.000837 16.699219 1.100446 16.900781 1.299665 17.1 C 1.498884 17.299219 1.700474 17.4 1.999302 17.4 L 32.000698 17.4 C 32.299526 17.4 32.501116 17.299219 32.700335 17.1 C 32.899554 16.900781 32.999163 16.699219 32.999163 16.399219 L 32.999163 1.699219 C 32.999163 1.399219 32.899554 1.2 32.700335 1.000781 C 32.501116 0.799219 32.299526 0.700781 32.000698 0.700781 Z M 32.000698 0.700781 " transform="matrix(1.647059,0,0,1.666667,0,0)"/>
<path style=" stroke:none;fill-rule:nonzero;fill:rgb(10.196078%,12.156863%,44.313725%);fill-opacity:1;" d="M 23.554688 9.667969 L 18.941406 20.667969 L 16.140625 20.667969 L 13.835938 11.832031 C 13.835938 11.667969 13.835938 11.5 13.671875 11.332031 C 13.507812 11.167969 13.339844 11 13.175781 11 C 12.351562 10.5 11.363281 10.167969 10.375 10 L 10.375 9.667969 L 15.152344 9.667969 C 15.480469 9.667969 15.8125 9.832031 15.976562 10 C 16.140625 10.167969 16.304688 10.5 16.46875 10.832031 L 17.625 17.167969 L 20.589844 9.667969 Z M 35.082031 16.832031 C 35.082031 14 31.128906 13.832031 31.128906 12.5 C 31.128906 12.167969 31.457031 11.667969 32.28125 11.667969 C 33.269531 11.5 34.09375 11.667969 35.082031 12.167969 L 35.742188 10 C 34.917969 9.667969 34.09375 9.5 33.105469 9.5 C 30.304688 9.5 28.328125 11 28.328125 13.167969 C 28.328125 14.667969 29.648438 15.667969 30.800781 16.167969 C 31.789062 16.667969 32.28125 17 32.28125 17.5 C 32.28125 18.167969 31.457031 18.5 30.636719 18.5 C 29.648438 18.5 28.660156 18.332031 27.835938 17.832031 L 27.339844 20.167969 C 28.328125 20.5 29.316406 20.832031 30.46875 20.667969 C 33.269531 20.667969 35.246094 19.332031 35.082031 16.832031 Z M 42.492188 20.5 L 45.128906 20.5 L 42.824219 9.667969 L 40.519531 9.667969 C 40.1875 9.667969 40.023438 9.667969 39.859375 9.832031 C 39.695312 10 39.53125 10 39.363281 10.332031 L 35.246094 20.5 L 38.210938 20.5 L 38.871094 18.832031 L 42.492188 18.832031 Z M 39.363281 16.5 L 40.847656 12.332031 L 41.671875 16.5 Z M 27.507812 9.667969 L 25.199219 20.667969 L 22.398438 20.667969 L 24.707031 9.667969 C 24.707031 9.667969 27.507812 9.667969 27.507812 9.667969 Z M 27.507812 9.667969 "/>
</g>
</svg>
